STARTFONT 2.1
FONT -Monotype-Gill Sans-Medium-I-Normal--10-100-72-72-P-44-ISO8859-1
SIZE 10 72 72
FONTBOUNDINGBOX 17 11 -4 -2

STARTPROPERTIES 22
FOUNDRY "Monotype"
FAMILY_NAME "Gill Sans"
WEIGHT_NAME "Medium"
SLANT "I"
SETWIDTH_NAME "Normal"
ADD_STYLE_NAME ""
PIXEL_SIZE 10
POINT_SIZE 100
RESOLUTION_X 72
RESOLUTION_Y 72
SPACING "P"
AVERAGE_WIDTH 44
CHARSET_REGISTRY "ISO8859"
CHARSET_ENCODING "1"
FULL_NAME "GillSans-Italic"
COPYRIGHT "Copyright (c) 1991 The Monotype Corporation plc."
WEIGHT 10
X_HEIGHT 5
QUAD_WIDTH 6
DEFAULT_CHAR 32
FONT_DESCENT 3
FONT_ASCENT 9
ENDPROPERTIES

CHARS 190

STARTCHAR space
ENCODING 32
SWIDTH 278 0
DWIDTH 3 0
BBX 1 1 0 0
BITMAP
00
ENDCHAR

STARTCHAR exclam
ENCODING 33
SWIDTH 250 0
DWIDTH 3 0
BBX 2 7 0 0
BITMAP
40
40
40
40
40
00
80
ENDCHAR

STARTCHAR quotedbl
ENCODING 34
SWIDTH 354 0
DWIDTH 4 0
BBX 3 3 0 4
BITMAP
A0
A0
A0
ENDCHAR

STARTCHAR numbersign
ENCODING 35
SWIDTH 584 0
DWIDTH 7 0
BBX 6 8 0 -1
BITMAP
28
68
FC
48
48
FC
50
90
ENDCHAR

STARTCHAR dollar
ENCODING 36
SWIDTH 500 0
DWIDTH 5 0
BBX 4 8 0 -1
BITMAP
70
A0
60
60
30
B0
F0
40
ENDCHAR

STARTCHAR percent
ENCODING 37
SWIDTH 708 0
DWIDTH 7 0
BBX 6 7 1 0
BITMAP
EC
A8
F0
10
2C
54
CC
ENDCHAR

STARTCHAR ampersand
ENCODING 38
SWIDTH 688 0
DWIDTH 7 0
BBX 6 7 1 0
BITMAP
30
50
50
64
B8
98
6C
ENDCHAR

STARTCHAR quoteright
ENCODING 39
SWIDTH 198 0
DWIDTH 2 0
BBX 2 2 1 5
BITMAP
C0
80
ENDCHAR

STARTCHAR parenleft
ENCODING 40
SWIDTH 292 0
DWIDTH 3 0
BBX 3 9 1 -2
BITMAP
20
40
C0
80
80
80
80
80
C0
ENDCHAR

STARTCHAR parenright
ENCODING 41
SWIDTH 292 0
DWIDTH 3 0
BBX 3 9 0 -2
BITMAP
40
20
20
20
20
20
40
40
80
ENDCHAR

STARTCHAR asterisk
ENCODING 42
SWIDTH 448 0
DWIDTH 4 0
BBX 4 4 1 3
BITMAP
A0
B0
F0
40
ENDCHAR

STARTCHAR plus
ENCODING 43
SWIDTH 584 0
DWIDTH 6 0
BBX 5 5 0 1
BITMAP
20
20
F8
20
20
ENDCHAR

STARTCHAR comma
ENCODING 44
SWIDTH 198 0
DWIDTH 2 0
BBX 2 2 0 -2
BITMAP
C0
80
ENDCHAR

STARTCHAR minus
ENCODING 45
SWIDTH 584 0
DWIDTH 6 0
BBX 5 1 1 3
BITMAP
F8
ENDCHAR

STARTCHAR period
ENCODING 46
SWIDTH 198 0
DWIDTH 2 0
BBX 1 1 0 0
BITMAP
80
ENDCHAR

STARTCHAR slash
ENCODING 47
SWIDTH 281 0
DWIDTH 3 0
BBX 3 9 0 -2
BITMAP
20
20
40
40
40
40
80
80
80
ENDCHAR

STARTCHAR zero
ENCODING 48
SWIDTH 521 0
DWIDTH 5 0
BBX 5 7 1 0
BITMAP
70
50
98
90
90
90
60
ENDCHAR

STARTCHAR one
ENCODING 49
SWIDTH 521 0
DWIDTH 5 0
BBX 2 7 2 0
BITMAP
40
40
40
80
80
80
80
ENDCHAR

STARTCHAR two
ENCODING 50
SWIDTH 521 0
DWIDTH 5 0
BBX 4 7 0 0
BITMAP
70
50
10
10
20
40
F0
ENDCHAR

STARTCHAR three
ENCODING 51
SWIDTH 521 0
DWIDTH 5 0
BBX 4 7 0 0
BITMAP
70
50
10
20
10
90
E0
ENDCHAR

STARTCHAR four
ENCODING 52
SWIDTH 521 0
DWIDTH 5 0
BBX 5 7 0 0
BITMAP
10
30
70
50
F8
20
20
ENDCHAR

STARTCHAR five
ENCODING 53
SWIDTH 521 0
DWIDTH 5 0
BBX 5 7 0 0
BITMAP
38
20
70
10
10
90
E0
ENDCHAR

STARTCHAR six
ENCODING 54
SWIDTH 521 0
DWIDTH 5 0
BBX 4 7 1 0
BITMAP
30
40
F0
90
90
90
60
ENDCHAR

STARTCHAR seven
ENCODING 55
SWIDTH 521 0
DWIDTH 5 0
BBX 4 7 1 0
BITMAP
F0
30
20
60
40
40
80
ENDCHAR

STARTCHAR eight
ENCODING 56
SWIDTH 521 0
DWIDTH 5 0
BBX 5 7 0 0
BITMAP
70
50
58
70
90
90
60
ENDCHAR

STARTCHAR nine
ENCODING 57
SWIDTH 521 0
DWIDTH 5 0
BBX 4 7 1 0
BITMAP
70
90
90
F0
20
60
C0
ENDCHAR

STARTCHAR colon
ENCODING 58
SWIDTH 198 0
DWIDTH 2 0
BBX 2 5 0 0
BITMAP
40
00
00
00
80
ENDCHAR

STARTCHAR semicolon
ENCODING 59
SWIDTH 198 0
DWIDTH 2 0
BBX 2 6 0 -1
BITMAP
40
00
00
00
C0
80
ENDCHAR

STARTCHAR less
ENCODING 60
SWIDTH 584 0
DWIDTH 6 0
BBX 5 6 1 1
BITMAP
08
30
C0
C0
30
08
ENDCHAR

STARTCHAR equal
ENCODING 61
SWIDTH 584 0
DWIDTH 6 0
BBX 5 3 1 2
BITMAP
F8
00
F8
ENDCHAR

STARTCHAR greater
ENCODING 62
SWIDTH 584 0
DWIDTH 6 0
BBX 5 6 1 1
BITMAP
80
60
18
18
60
80
ENDCHAR

STARTCHAR question
ENCODING 63
SWIDTH 354 0
DWIDTH 4 0
BBX 3 7 1 0
BITMAP
60
A0
60
40
80
00
80
ENDCHAR

STARTCHAR at
ENCODING 64
SWIDTH 1010 0
DWIDTH 10 0
BBX 9 9 1 -2
BITMAP
3E00
7F00
D680
A480
A480
AD00
9E80
6100
3E00
ENDCHAR

STARTCHAR A
ENCODING 65
SWIDTH 521 0
DWIDTH 5 0
BBX 5 7 0 0
BITMAP
10
30
30
48
78
48
88
ENDCHAR

STARTCHAR B
ENCODING 66
SWIDTH 510 0
DWIDTH 5 0
BBX 5 7 0 0
BITMAP
70
50
50
F0
98
88
F0
ENDCHAR

STARTCHAR C
ENCODING 67
SWIDTH 552 0
DWIDTH 6 0
BBX 5 7 0 0
BITMAP
38
60
80
80
80
C8
70
ENDCHAR

STARTCHAR D
ENCODING 68
SWIDTH 656 0
DWIDTH 7 0
BBX 6 7 0 0
BITMAP
70
48
44
84
84
88
F0
ENDCHAR

STARTCHAR E
ENCODING 69
SWIDTH 510 0
DWIDTH 5 0
BBX 5 7 0 0
BITMAP
78
40
40
F0
80
80
F8
ENDCHAR

STARTCHAR F
ENCODING 70
SWIDTH 417 0
DWIDTH 4 0
BBX 4 7 0 0
BITMAP
70
40
40
F0
80
80
80
ENDCHAR

STARTCHAR G
ENCODING 71
SWIDTH 604 0
DWIDTH 6 0
BBX 6 7 0 0
BITMAP
3C
40
80
80
98
C8
78
ENDCHAR

STARTCHAR H
ENCODING 72
SWIDTH 698 0
DWIDTH 7 0
BBX 7 7 0 0
BITMAP
46
44
44
FC
84
84
84
ENDCHAR

STARTCHAR I
ENCODING 73
SWIDTH 240 0
DWIDTH 2 0
BBX 2 7 0 0
BITMAP
40
40
40
80
80
80
80
ENDCHAR

STARTCHAR J
ENCODING 74
SWIDTH 240 0
DWIDTH 2 0
BBX 4 9 0 -2
BITMAP
10
20
20
20
20
20
20
20
C0
ENDCHAR

STARTCHAR K
ENCODING 75
SWIDTH 563 0
DWIDTH 6 0
BBX 6 7 0 0
BITMAP
4C
50
60
E0
B0
90
88
ENDCHAR

STARTCHAR L
ENCODING 76
SWIDTH 417 0
DWIDTH 4 0
BBX 4 7 0 0
BITMAP
40
40
40
80
80
80
F0
ENDCHAR

STARTCHAR M
ENCODING 77
SWIDTH 813 0
DWIDTH 8 0
BBX 7 7 0 0
BITMAP
22
22
56
56
5A
9A
92
ENDCHAR

STARTCHAR N
ENCODING 78
SWIDTH 688 0
DWIDTH 7 0
BBX 6 7 0 0
BITMAP
44
44
A4
94
94
8C
84
ENDCHAR

STARTCHAR O
ENCODING 79
SWIDTH 656 0
DWIDTH 7 0
BBX 6 7 0 0
BITMAP
38
4C
84
84
88
88
70
ENDCHAR

STARTCHAR P
ENCODING 80
SWIDTH 448 0
DWIDTH 4 0
BBX 4 7 0 0
BITMAP
70
50
50
F0
80
80
80
ENDCHAR

STARTCHAR Q
ENCODING 81
SWIDTH 656 0
DWIDTH 7 0
BBX 6 9 0 -2
BITMAP
38
48
84
84
88
88
70
24
18
ENDCHAR

STARTCHAR R
ENCODING 82
SWIDTH 531 0
DWIDTH 5 0
BBX 5 7 0 0
BITMAP
70
50
50
E0
90
90
88
ENDCHAR

STARTCHAR S
ENCODING 83
SWIDTH 458 0
DWIDTH 5 0
BBX 4 7 1 0
BITMAP
70
D0
40
60
30
90
E0
ENDCHAR

STARTCHAR T
ENCODING 84
SWIDTH 510 0
DWIDTH 5 0
BBX 5 7 1 0
BITMAP
F8
20
20
20
40
40
40
ENDCHAR

STARTCHAR U
ENCODING 85
SWIDTH 635 0
DWIDTH 6 0
BBX 6 7 1 0
BITMAP
C4
84
88
88
88
88
70
ENDCHAR

STARTCHAR V
ENCODING 86
SWIDTH 510 0
DWIDTH 5 0
BBX 5 7 1 0
BITMAP
88
90
90
60
60
60
40
ENDCHAR

STARTCHAR W
ENCODING 87
SWIDTH 927 0
DWIDTH 9 0
BBX 9 7 1 0
BITMAP
8880
8880
D900
5500
6600
6600
4400
ENDCHAR

STARTCHAR X
ENCODING 88
SWIDTH 667 0
DWIDTH 7 0
BBX 7 7 0 0
BITMAP
62
2C
18
10
28
6C
C6
ENDCHAR

STARTCHAR Y
ENCODING 89
SWIDTH 490 0
DWIDTH 5 0
BBX 5 7 1 0
BITMAP
98
50
60
40
40
40
40
ENDCHAR

STARTCHAR Z
ENCODING 90
SWIDTH 583 0
DWIDTH 6 0
BBX 7 7 0 0
BITMAP
7E
0C
08
10
20
40
FC
ENDCHAR

STARTCHAR bracketleft
ENCODING 91
SWIDTH 333 0
DWIDTH 3 0
BBX 3 9 0 -2
BITMAP
60
40
40
40
40
40
80
80
C0
ENDCHAR

STARTCHAR backslash
ENCODING 92
SWIDTH 281 0
DWIDTH 3 0
BBX 2 7 1 0
BITMAP
80
80
80
80
80
40
40
ENDCHAR

STARTCHAR bracketright
ENCODING 93
SWIDTH 333 0
DWIDTH 3 0
BBX 3 9 0 -2
BITMAP
60
20
20
20
20
20
20
40
C0
ENDCHAR

STARTCHAR asciicircum
ENCODING 94
SWIDTH 469 0
DWIDTH 5 0
BBX 4 4 0 3
BITMAP
60
60
50
90
ENDCHAR

STARTCHAR underscore
ENCODING 95
SWIDTH 500 0
DWIDTH 6 0
BBX 6 1 0 -2
BITMAP
FC
ENDCHAR

STARTCHAR quoteleft
ENCODING 96
SWIDTH 198 0
DWIDTH 2 0
BBX 2 2 1 5
BITMAP
C0
80
ENDCHAR

STARTCHAR a
ENCODING 97
SWIDTH 469 0
DWIDTH 5 0
BBX 4 5 0 0
BITMAP
70
90
90
90
F0
ENDCHAR

STARTCHAR b
ENCODING 98
SWIDTH 469 0
DWIDTH 5 0
BBX 4 7 0 0
BITMAP
40
40
70
90
90
90
E0
ENDCHAR

STARTCHAR c
ENCODING 99
SWIDTH 385 0
DWIDTH 4 0
BBX 4 5 0 0
BITMAP
70
80
80
A0
60
ENDCHAR

STARTCHAR d
ENCODING 100
SWIDTH 469 0
DWIDTH 5 0
BBX 4 7 0 0
BITMAP
10
10
70
90
90
90
70
ENDCHAR

STARTCHAR e
ENCODING 101
SWIDTH 438 0
DWIDTH 4 0
BBX 4 5 0 0
BITMAP
60
90
F0
80
70
ENDCHAR

STARTCHAR f
ENCODING 102
SWIDTH 271 0
DWIDTH 3 0
BBX 4 9 0 -2
BITMAP
70
40
E0
40
80
80
80
80
80
ENDCHAR

STARTCHAR g
ENCODING 103
SWIDTH 427 0
DWIDTH 4 0
BBX 5 7 0 -2
BITMAP
78
50
50
60
60
90
E0
ENDCHAR

STARTCHAR h
ENCODING 104
SWIDTH 469 0
DWIDTH 5 0
BBX 4 7 0 0
BITMAP
40
40
70
D0
90
90
90
ENDCHAR

STARTCHAR i
ENCODING 105
SWIDTH 188 0
DWIDTH 2 0
BBX 2 7 0 0
BITMAP
40
00
80
80
80
80
80
ENDCHAR

STARTCHAR j
ENCODING 106
SWIDTH 188 0
DWIDTH 2 0
BBX 3 9 0 -2
BITMAP
20
00
20
20
40
40
40
40
C0
ENDCHAR

STARTCHAR k
ENCODING 107
SWIDTH 458 0
DWIDTH 5 0
BBX 4 7 0 0
BITMAP
40
40
50
A0
C0
A0
90
ENDCHAR

STARTCHAR l
ENCODING 108
SWIDTH 188 0
DWIDTH 2 0
BBX 2 7 0 0
BITMAP
40
40
80
80
80
80
80
ENDCHAR

STARTCHAR m
ENCODING 109
SWIDTH 740 0
DWIDTH 7 0
BBX 7 5 0 0
BITMAP
7E
D2
92
92
96
ENDCHAR

STARTCHAR n
ENCODING 110
SWIDTH 469 0
DWIDTH 5 0
BBX 4 5 0 0
BITMAP
70
D0
90
90
90
ENDCHAR

STARTCHAR o
ENCODING 111
SWIDTH 448 0
DWIDTH 4 0
BBX 4 5 0 0
BITMAP
60
90
90
90
60
ENDCHAR

STARTCHAR p
ENCODING 112
SWIDTH 490 0
DWIDTH 5 0
BBX 4 8 0 -2
BITMAP
40
70
D0
90
90
E0
80
80
ENDCHAR

STARTCHAR q
ENCODING 113
SWIDTH 469 0
DWIDTH 5 0
BBX 4 7 0 -2
BITMAP
70
90
90
90
70
20
20
ENDCHAR

STARTCHAR r
ENCODING 114
SWIDTH 313 0
DWIDTH 3 0
BBX 3 5 0 0
BITMAP
60
C0
80
80
80
ENDCHAR

STARTCHAR s
ENCODING 115
SWIDTH 354 0
DWIDTH 4 0
BBX 3 5 0 0
BITMAP
60
80
40
20
E0
ENDCHAR

STARTCHAR t
ENCODING 116
SWIDTH 281 0
DWIDTH 3 0
BBX 3 6 0 0
BITMAP
40
E0
40
40
80
C0
ENDCHAR

STARTCHAR u
ENCODING 117
SWIDTH 469 0
DWIDTH 5 0
BBX 4 5 0 0
BITMAP
90
90
90
B0
E0
ENDCHAR

STARTCHAR v
ENCODING 118
SWIDTH 375 0
DWIDTH 4 0
BBX 4 5 0 0
BITMAP
90
A0
A0
40
40
ENDCHAR

STARTCHAR w
ENCODING 119
SWIDTH 615 0
DWIDTH 6 0
BBX 6 5 0 0
BITMAP
94
BC
B8
58
50
ENDCHAR

STARTCHAR x
ENCODING 120
SWIDTH 427 0
DWIDTH 4 0
BBX 5 5 0 0
BITMAP
58
30
20
70
90
ENDCHAR

STARTCHAR y
ENCODING 121
SWIDTH 375 0
DWIDTH 4 0
BBX 4 7 0 -2
BITMAP
90
70
60
60
40
40
80
ENDCHAR

STARTCHAR z
ENCODING 122
SWIDTH 458 0
DWIDTH 5 0
BBX 5 5 0 0
BITMAP
78
30
20
40
F0
ENDCHAR

STARTCHAR braceleft
ENCODING 123
SWIDTH 333 0
DWIDTH 3 0
BBX 3 9 0 -2
BITMAP
60
40
40
40
80
40
40
40
60
ENDCHAR

STARTCHAR bar
ENCODING 124
SWIDTH 260 0
DWIDTH 3 0
BBX 3 9 0 -2
BITMAP
20
40
40
40
40
40
80
80
80
ENDCHAR

STARTCHAR braceright
ENCODING 125
SWIDTH 333 0
DWIDTH 3 0
BBX 3 9 0 -2
BITMAP
C0
40
40
40
20
40
40
40
C0
ENDCHAR

STARTCHAR asciitilde
ENCODING 126
SWIDTH 584 0
DWIDTH 6 0
BBX 5 2 1 4
BITMAP
E8
B8
ENDCHAR

STARTCHAR exclamdown
ENCODING 161
SWIDTH 250 0
DWIDTH 3 0
BBX 2 7 0 -2
BITMAP
40
00
80
80
80
80
80
ENDCHAR

STARTCHAR cent
ENCODING 162
SWIDTH 385 0
DWIDTH 4 0
BBX 4 9 0 -2
BITMAP
10
10
70
A0
E0
C0
E0
40
80
ENDCHAR

STARTCHAR sterling
ENCODING 163
SWIDTH 469 0
DWIDTH 5 0
BBX 5 7 0 0
BITMAP
18
20
60
E0
40
C0
F0
ENDCHAR

STARTCHAR currency
ENCODING 164
SWIDTH 552 0
DWIDTH 6 0
BBX 6 7 0 1
BITMAP
84
78
48
48
48
78
84
ENDCHAR

STARTCHAR yen
ENCODING 165
SWIDTH 552 0
DWIDTH 6 0
BBX 7 7 0 0
BITMAP
4E
38
F8
20
F8
20
20
ENDCHAR

STARTCHAR brokenbar
ENCODING 166
SWIDTH 260 0
DWIDTH 3 0
BBX 3 9 0 -2
BITMAP
20
40
40
00
00
40
80
80
80
ENDCHAR

STARTCHAR section
ENCODING 167
SWIDTH 490 0
DWIDTH 5 0
BBX 4 9 0 -2
BITMAP
30
50
40
F0
90
70
20
A0
E0
ENDCHAR

STARTCHAR dieresis
ENCODING 168
SWIDTH 333 0
DWIDTH 3 0
BBX 3 1 1 6
BITMAP
A0
ENDCHAR

STARTCHAR copyright
ENCODING 169
SWIDTH 740 0
DWIDTH 7 0
BBX 8 7 0 0
BITMAP
3C
5A
A5
A5
99
42
3C
ENDCHAR

STARTCHAR ordfeminine
ENCODING 170
SWIDTH 313 0
DWIDTH 3 0
BBX 3 3 1 4
BITMAP
60
A0
C0
ENDCHAR

STARTCHAR guillemotleft
ENCODING 171
SWIDTH 438 0
DWIDTH 4 0
BBX 5 5 0 0
BITMAP
50
70
28
50
A0
ENDCHAR

STARTCHAR logicalnot
ENCODING 172
SWIDTH 584 0
DWIDTH 6 0
BBX 5 3 0 1
BITMAP
F8
08
08
ENDCHAR

STARTCHAR hyphen
ENCODING 173
SWIDTH 250 0
DWIDTH 3 0
BBX 3 1 0 2
BITMAP
E0
ENDCHAR

STARTCHAR registered
ENCODING 174
SWIDTH 740 0
DWIDTH 7 0
BBX 7 7 0 0
BITMAP
38
44
BA
AA
BA
44
38
ENDCHAR

STARTCHAR macron
ENCODING 175
SWIDTH 333 0
DWIDTH 3 0
BBX 3 1 0 6
BITMAP
E0
ENDCHAR

STARTCHAR degree
ENCODING 176
SWIDTH 396 0
DWIDTH 4 0
BBX 3 2 0 5
BITMAP
E0
E0
ENDCHAR

STARTCHAR plusminus
ENCODING 177
SWIDTH 584 0
DWIDTH 6 0
BBX 5 7 0 0
BITMAP
20
20
F8
20
20
20
F8
ENDCHAR

STARTCHAR twosuperior
ENCODING 178
SWIDTH 323 0
DWIDTH 3 0
BBX 3 4 -3 3
BITMAP
60
20
40
E0
ENDCHAR

STARTCHAR threesuperior
ENCODING 179
SWIDTH 323 0
DWIDTH 3 0
BBX 3 4 -3 3
BITMAP
60
40
40
C0
ENDCHAR

STARTCHAR acute
ENCODING 180
SWIDTH 333 0
DWIDTH 3 0
BBX 2 1 2 6
BITMAP
C0
ENDCHAR

STARTCHAR mu
ENCODING 181
SWIDTH 552 0
DWIDTH 6 0
BBX 5 7 0 -2
BITMAP
48
48
48
50
F0
80
80
ENDCHAR

STARTCHAR paragraph
ENCODING 182
SWIDTH 542 0
DWIDTH 5 0
BBX 6 9 0 -2
BITMAP
7C
E8
E8
68
28
28
28
28
28
ENDCHAR

STARTCHAR periodcentered
ENCODING 183
SWIDTH 260 0
DWIDTH 3 0
BBX 1 1 1 2
BITMAP
80
ENDCHAR

STARTCHAR cedilla
ENCODING 184
SWIDTH 333 0
DWIDTH 3 0
BBX 2 2 0 -2
BITMAP
40
C0
ENDCHAR

STARTCHAR onesuperior
ENCODING 185
SWIDTH 323 0
DWIDTH 3 0
BBX 1 4 -4 3
BITMAP
80
80
80
80
ENDCHAR

STARTCHAR ordmasculine
ENCODING 186
SWIDTH 302 0
DWIDTH 3 0
BBX 3 3 1 4
BITMAP
C0
A0
C0
ENDCHAR

STARTCHAR guillemotright
ENCODING 187
SWIDTH 438 0
DWIDTH 4 0
BBX 5 5 0 0
BITMAP
78
F0
A0
A0
70
ENDCHAR

STARTCHAR onequarter
ENCODING 188
SWIDTH 844 0
DWIDTH 8 0
BBX 8 7 3 0
BITMAP
84
88
90
B2
22
47
82
ENDCHAR

STARTCHAR onehalf
ENCODING 189
SWIDTH 844 0
DWIDTH 8 0
BBX 8 7 3 0
BITMAP
84
88
90
B3
21
42
87
ENDCHAR

STARTCHAR threequarters
ENCODING 190
SWIDTH 844 0
DWIDTH 8 0
BBX 9 7 4 0
BITMAP
6200
4400
4800
D900
1100
2380
4100
ENDCHAR

STARTCHAR questiondown
ENCODING 191
SWIDTH 354 0
DWIDTH 4 0
BBX 3 7 0 -2
BITMAP
20
00
20
40
80
A0
E0
ENDCHAR

STARTCHAR Agrave
ENCODING 192
SWIDTH 521 0
DWIDTH 5 0
BBX 5 8 0 0
BITMAP
08
18
30
30
48
78
48
88
ENDCHAR

STARTCHAR Aacute
ENCODING 193
SWIDTH 521 0
DWIDTH 5 0
BBX 5 8 0 0
BITMAP
18
10
30
30
48
78
48
88
ENDCHAR

STARTCHAR Acircumflex
ENCODING 194
SWIDTH 521 0
DWIDTH 5 0
BBX 5 9 0 0
BITMAP
10
28
10
30
30
48
78
48
88
ENDCHAR

STARTCHAR Atilde
ENCODING 195
SWIDTH 521 0
DWIDTH 5 0
BBX 5 8 0 0
BITMAP
38
10
30
30
48
78
48
88
ENDCHAR

STARTCHAR Adieresis
ENCODING 196
SWIDTH 521 0
DWIDTH 5 0
BBX 5 8 0 0
BITMAP
28
10
30
30
48
78
48
88
ENDCHAR

STARTCHAR Aring
ENCODING 197
SWIDTH 521 0
DWIDTH 5 0
BBX 5 9 0 0
BITMAP
18
18
10
30
30
48
78
48
88
ENDCHAR

STARTCHAR AE
ENCODING 198
SWIDTH 833 0
DWIDTH 8 0
BBX 8 7 0 0
BITMAP
1F
18
38
3F
48
48
8F
ENDCHAR

STARTCHAR Ccedilla
ENCODING 199
SWIDTH 552 0
DWIDTH 6 0
BBX 5 9 0 -2
BITMAP
38
60
80
80
80
C8
70
20
60
ENDCHAR

STARTCHAR Egrave
ENCODING 200
SWIDTH 510 0
DWIDTH 5 0
BBX 5 8 0 0
BITMAP
10
78
40
40
F0
80
80
F8
ENDCHAR

STARTCHAR Eacute
ENCODING 201
SWIDTH 510 0
DWIDTH 5 0
BBX 5 8 0 0
BITMAP
20
78
40
40
F0
80
80
F8
ENDCHAR

STARTCHAR Ecircumflex
ENCODING 202
SWIDTH 510 0
DWIDTH 5 0
BBX 5 9 0 0
BITMAP
20
50
78
40
40
F0
80
80
F8
ENDCHAR

STARTCHAR Edieresis
ENCODING 203
SWIDTH 510 0
DWIDTH 5 0
BBX 5 8 0 0
BITMAP
50
78
40
40
F0
80
80
F8
ENDCHAR

STARTCHAR Igrave
ENCODING 204
SWIDTH 240 0
DWIDTH 2 0
BBX 2 8 0 0
BITMAP
40
40
40
40
80
80
80
80
ENDCHAR

STARTCHAR Iacute
ENCODING 205
SWIDTH 240 0
DWIDTH 2 0
BBX 3 8 0 0
BITMAP
60
40
40
40
80
80
80
80
ENDCHAR

STARTCHAR Icircumflex
ENCODING 206
SWIDTH 240 0
DWIDTH 2 0
BBX 3 9 0 0
BITMAP
40
A0
40
40
40
80
80
80
80
ENDCHAR

STARTCHAR Idieresis
ENCODING 207
SWIDTH 240 0
DWIDTH 2 0
BBX 3 8 0 0
BITMAP
A0
40
40
40
80
80
80
80
ENDCHAR

STARTCHAR Eth
ENCODING 208
SWIDTH 656 0
DWIDTH 7 0
BBX 6 7 0 0
BITMAP
70
4C
44
E4
44
4C
F8
ENDCHAR

STARTCHAR Ntilde
ENCODING 209
SWIDTH 688 0
DWIDTH 7 0
BBX 6 8 0 0
BITMAP
38
44
44
A4
94
94
8C
84
ENDCHAR

STARTCHAR Ograve
ENCODING 210
SWIDTH 656 0
DWIDTH 7 0
BBX 6 8 0 0
BITMAP
10
38
4C
84
84
88
88
70
ENDCHAR

STARTCHAR Oacute
ENCODING 211
SWIDTH 656 0
DWIDTH 7 0
BBX 6 8 0 0
BITMAP
10
38
4C
84
84
88
88
70
ENDCHAR

STARTCHAR Ocircumflex
ENCODING 212
SWIDTH 656 0
DWIDTH 7 0
BBX 6 9 0 0
BITMAP
10
28
38
4C
84
84
88
88
70
ENDCHAR

STARTCHAR Otilde
ENCODING 213
SWIDTH 656 0
DWIDTH 7 0
BBX 6 8 0 0
BITMAP
38
38
4C
84
84
88
88
70
ENDCHAR

STARTCHAR Odieresis
ENCODING 214
SWIDTH 656 0
DWIDTH 7 0
BBX 6 8 0 0
BITMAP
28
38
4C
84
84
88
88
70
ENDCHAR

STARTCHAR multiply
ENCODING 215
SWIDTH 584 0
DWIDTH 6 0
BBX 4 5 1 1
BITMAP
90
70
60
70
90
ENDCHAR

STARTCHAR Oslash
ENCODING 216
SWIDTH 656 0
DWIDTH 7 0
BBX 6 7 0 0
BITMAP
3C
4C
9C
B4
A8
C8
F0
ENDCHAR

STARTCHAR Ugrave
ENCODING 217
SWIDTH 635 0
DWIDTH 6 0
BBX 6 8 1 0
BITMAP
10
D4
84
88
88
88
88
70
ENDCHAR

STARTCHAR Uacute
ENCODING 218
SWIDTH 635 0
DWIDTH 6 0
BBX 6 8 1 0
BITMAP
18
C4
84
88
88
88
88
70
ENDCHAR

STARTCHAR Ucircumflex
ENCODING 219
SWIDTH 635 0
DWIDTH 6 0
BBX 6 9 1 0
BITMAP
10
28
C4
84
88
88
88
88
70
ENDCHAR

STARTCHAR Udieresis
ENCODING 220
SWIDTH 635 0
DWIDTH 6 0
BBX 6 8 1 0
BITMAP
28
C4
84
88
88
88
88
70
ENDCHAR

STARTCHAR Yacute
ENCODING 221
SWIDTH 490 0
DWIDTH 5 0
BBX 5 8 1 0
BITMAP
30
98
50
60
40
40
40
40
ENDCHAR

STARTCHAR Thorn
ENCODING 222
SWIDTH 448 0
DWIDTH 4 0
BBX 4 7 0 0
BITMAP
40
40
70
90
90
E0
80
ENDCHAR

STARTCHAR germandbls
ENCODING 223
SWIDTH 500 0
DWIDTH 5 0
BBX 4 7 0 0
BITMAP
70
50
70
90
90
90
A0
ENDCHAR

STARTCHAR agrave
ENCODING 224
SWIDTH 469 0
DWIDTH 5 0
BBX 4 6 0 0
BITMAP
10
70
90
90
90
F0
ENDCHAR

STARTCHAR aacute
ENCODING 225
SWIDTH 469 0
DWIDTH 5 0
BBX 4 6 0 0
BITMAP
20
70
90
90
90
F0
ENDCHAR

STARTCHAR acircumflex
ENCODING 226
SWIDTH 469 0
DWIDTH 5 0
BBX 4 7 0 0
BITMAP
20
50
70
90
90
90
F0
ENDCHAR

STARTCHAR atilde
ENCODING 227
SWIDTH 469 0
DWIDTH 5 0
BBX 4 6 0 0
BITMAP
70
70
90
90
90
F0
ENDCHAR

STARTCHAR adieresis
ENCODING 228
SWIDTH 469 0
DWIDTH 5 0
BBX 4 6 0 0
BITMAP
50
70
90
90
90
F0
ENDCHAR

STARTCHAR aring
ENCODING 229
SWIDTH 469 0
DWIDTH 5 0
BBX 4 7 0 0
BITMAP
30
30
70
90
90
90
F0
ENDCHAR

STARTCHAR ae
ENCODING 230
SWIDTH 646 0
DWIDTH 6 0
BBX 6 5 0 0
BITMAP
F8
14
7C
A0
DC
ENDCHAR

STARTCHAR ccedilla
ENCODING 231
SWIDTH 385 0
DWIDTH 4 0
BBX 4 7 0 -2
BITMAP
70
80
80
A0
60
40
C0
ENDCHAR

STARTCHAR egrave
ENCODING 232
SWIDTH 438 0
DWIDTH 4 0
BBX 4 6 0 0
BITMAP
20
60
90
F0
80
70
ENDCHAR

STARTCHAR eacute
ENCODING 233
SWIDTH 438 0
DWIDTH 4 0
BBX 4 6 0 0
BITMAP
30
60
90
F0
80
70
ENDCHAR

STARTCHAR ecircumflex
ENCODING 234
SWIDTH 438 0
DWIDTH 4 0
BBX 4 7 0 0
BITMAP
20
50
60
90
F0
80
70
ENDCHAR

STARTCHAR edieresis
ENCODING 235
SWIDTH 438 0
DWIDTH 4 0
BBX 4 6 0 0
BITMAP
50
60
90
F0
80
70
ENDCHAR

STARTCHAR igrave
ENCODING 236
SWIDTH 188 0
DWIDTH 2 0
BBX 2 6 0 0
BITMAP
40
C0
80
80
80
80
ENDCHAR

STARTCHAR iacute
ENCODING 237
SWIDTH 188 0
DWIDTH 2 0
BBX 3 6 0 0
BITMAP
60
80
80
80
80
80
ENDCHAR

STARTCHAR icircumflex
ENCODING 238
SWIDTH 188 0
DWIDTH 2 0
BBX 3 7 0 0
BITMAP
40
A0
80
80
80
80
80
ENDCHAR

STARTCHAR idieresis
ENCODING 239
SWIDTH 188 0
DWIDTH 2 0
BBX 3 6 0 0
BITMAP
A0
80
80
80
80
80
ENDCHAR

STARTCHAR eth
ENCODING 240
SWIDTH 448 0
DWIDTH 4 0
BBX 4 7 0 0
BITMAP
70
70
70
90
90
90
E0
ENDCHAR

STARTCHAR ntilde
ENCODING 241
SWIDTH 469 0
DWIDTH 5 0
BBX 4 6 0 0
BITMAP
70
70
D0
90
90
90
ENDCHAR

STARTCHAR ograve
ENCODING 242
SWIDTH 448 0
DWIDTH 4 0
BBX 4 6 0 0
BITMAP
20
60
90
90
90
60
ENDCHAR

STARTCHAR oacute
ENCODING 243
SWIDTH 448 0
DWIDTH 4 0
BBX 4 6 0 0
BITMAP
30
60
90
90
90
60
ENDCHAR

STARTCHAR ocircumflex
ENCODING 244
SWIDTH 448 0
DWIDTH 4 0
BBX 4 7 0 0
BITMAP
20
50
60
90
90
90
60
ENDCHAR

STARTCHAR otilde
ENCODING 245
SWIDTH 448 0
DWIDTH 4 0
BBX 4 6 0 0
BITMAP
70
60
90
90
90
60
ENDCHAR

STARTCHAR odieresis
ENCODING 246
SWIDTH 448 0
DWIDTH 4 0
BBX 4 6 0 0
BITMAP
50
60
90
90
90
60
ENDCHAR

STARTCHAR divide
ENCODING 247
SWIDTH 584 0
DWIDTH 6 0
BBX 5 5 1 1
BITMAP
20
00
F8
00
20
ENDCHAR

STARTCHAR oslash
ENCODING 248
SWIDTH 448 0
DWIDTH 4 0
BBX 4 5 0 0
BITMAP
70
B0
F0
D0
E0
ENDCHAR

STARTCHAR ugrave
ENCODING 249
SWIDTH 469 0
DWIDTH 5 0
BBX 4 6 0 0
BITMAP
20
B0
90
90
B0
E0
ENDCHAR

STARTCHAR uacute
ENCODING 250
SWIDTH 469 0
DWIDTH 5 0
BBX 4 6 0 0
BITMAP
30
90
90
90
B0
E0
ENDCHAR

STARTCHAR ucircumflex
ENCODING 251
SWIDTH 469 0
DWIDTH 5 0
BBX 4 7 0 0
BITMAP
20
50
90
90
90
B0
E0
ENDCHAR

STARTCHAR udieresis
ENCODING 252
SWIDTH 469 0
DWIDTH 5 0
BBX 4 6 0 0
BITMAP
50
90
90
90
B0
E0
ENDCHAR

STARTCHAR yacute
ENCODING 253
SWIDTH 375 0
DWIDTH 4 0
BBX 4 8 0 -2
BITMAP
30
90
70
60
60
40
40
80
ENDCHAR

STARTCHAR thorn
ENCODING 254
SWIDTH 490 0
DWIDTH 5 0
BBX 4 9 0 -2
BITMAP
40
40
70
50
50
50
E0
80
80
ENDCHAR

STARTCHAR ydieresis
ENCODING 255
SWIDTH 375 0
DWIDTH 4 0
BBX 4 8 0 -2
BITMAP
50
90
70
60
60
40
40
80
ENDCHAR
ENDFONT
